<svg width="19" height="19" viewBox="0 0 19 19" fill="none" xmlns="http://www.w3.org/2000/svg">
<path d="M16.2145 0C16.9533 0 17.6619 0.293494 18.1843 0.815917C18.7067 1.33834 19.0002 2.0469 19.0002 2.78571V16.0714C19.0002 16.8102 18.7067 17.5188 18.1843 18.0412C17.6619 18.5637 16.9533 18.8571 16.2145 18.8571H2.92878C2.18996 18.8571 1.48141 18.5637 0.958983 18.0412C0.43656 17.5188 0.143066 16.8102 0.143066 16.0714V2.78571C0.143066 2.0469 0.43656 1.33834 0.958983 0.815917C1.48141 0.293494 2.18996 0 2.92878 0H16.2145ZM17.7145 5.574H1.42878V16.0714C1.42878 16.8994 2.10078 17.5714 2.92878 17.5714H16.2145C16.6123 17.5714 16.9939 17.4134 17.2752 17.1321C17.5565 16.8508 17.7145 16.4693 17.7145 16.0714V5.574ZM5.07078 12.4294C5.35494 12.4294 5.62746 12.5423 5.82839 12.7432C6.02933 12.9442 6.14221 13.2167 6.14221 13.5009C6.14221 13.785 6.02933 14.0575 5.82839 14.2585C5.62746 14.4594 5.35494 14.5723 5.07078 14.5723C4.78662 14.5723 4.5141 14.4594 4.31317 14.2585C4.11223 14.0575 3.99935 13.785 3.99935 13.5009C3.99935 13.2167 4.11223 12.9442 4.31317 12.7432C4.5141 12.5423 4.78662 12.4294 5.07078 12.4294ZM9.57421 12.4294C9.85837 12.4294 10.1309 12.5423 10.3318 12.7432C10.5328 12.9442 10.6456 13.2167 10.6456 13.5009C10.6456 13.785 10.5328 14.0575 10.3318 14.2585C10.1309 14.4594 9.85837 14.5723 9.57421 14.5723C9.29005 14.5723 9.01753 14.4594 8.8166 14.2585C8.61566 14.0575 8.50278 13.785 8.50278 13.5009C8.50278 13.2167 8.61566 12.9442 8.8166 12.7432C9.01753 12.5423 9.29005 12.4294 9.57421 12.4294ZM5.07078 8.14371C5.35494 8.14371 5.62746 8.2566 5.82839 8.45753C6.02933 8.65846 6.14221 8.93098 6.14221 9.21514C6.14221 9.4993 6.02933 9.77183 5.82839 9.97276C5.62746 10.1737 5.35494 10.2866 5.07078 10.2866C4.78662 10.2866 4.5141 10.1737 4.31317 9.97276C4.11223 9.77183 3.99935 9.4993 3.99935 9.21514C3.99935 8.93098 4.11223 8.65846 4.31317 8.45753C4.5141 8.2566 4.78662 8.14371 5.07078 8.14371ZM9.57421 8.14371C9.85837 8.14371 10.1309 8.2566 10.3318 8.45753C10.5328 8.65846 10.6456 8.93098 10.6456 9.21514C10.6456 9.4993 10.5328 9.77183 10.3318 9.97276C10.1309 10.1737 9.85837 10.2866 9.57421 10.2866C9.29005 10.2866 9.01753 10.1737 8.8166 9.97276C8.61566 9.77183 8.50278 9.4993 8.50278 9.21514C8.50278 8.93098 8.61566 8.65846 8.8166 8.45753C9.01753 8.2566 9.29005 8.14371 9.57421 8.14371ZM14.0785 8.14371C14.3627 8.14371 14.6352 8.2566 14.8361 8.45753C15.037 8.65846 15.1499 8.93098 15.1499 9.21514C15.1499 9.4993 15.037 9.77183 14.8361 9.97276C14.6352 10.1737 14.3627 10.2866 14.0785 10.2866C13.7943 10.2866 13.5218 10.1737 13.3209 9.97276C13.1199 9.77183 13.0071 9.4993 13.0071 9.21514C13.0071 8.93098 13.1199 8.65846 13.3209 8.45753C13.5218 8.2566 13.7943 8.14371 14.0785 8.14371ZM16.2145 1.28571H2.92878C2.53096 1.28571 2.14943 1.44375 1.86812 1.72505C1.58682 2.00636 1.42878 2.38789 1.42878 2.78571V4.28829H17.7145V2.78571C17.7145 2.38789 17.5565 2.00636 17.2752 1.72505C16.9939 1.44375 16.6123 1.28571 16.2145 1.28571Z" fill="#6B18D8"/>
</svg>
