<svg width="14" height="14" viewBox="0 0 14 14" fill="none" xmlns="http://www.w3.org/2000/svg">
<path d="M7.4998 13.4998C7.43302 13.4998 7.36692 13.4865 7.30538 13.4605C7.24385 13.4346 7.18813 13.3966 7.14153 13.3488C7.09492 13.3009 7.05837 13.2443 7.03403 13.1821C7.00969 13.1199 6.99805 13.0535 6.9998 12.9867V7.25388C6.9998 7.18758 6.97346 7.12399 6.92658 7.07711C6.8797 7.03022 6.81611 7.00388 6.7498 7.00388H1.01262C0.907452 7.00513 0.804479 6.97381 0.717815 6.91423C0.631152 6.85464 0.565042 6.76971 0.528553 6.67107C0.486998 6.55344 0.490919 6.42452 0.539545 6.30963C0.588172 6.19475 0.677991 6.10219 0.791366 6.05013L12.7914 0.545443C12.8841 0.502964 12.9876 0.48985 13.0879 0.507858C13.1883 0.525867 13.2808 0.574138 13.3529 0.646197C13.4251 0.718256 13.4735 0.810657 13.4917 0.911008C13.5098 1.01136 13.4968 1.11486 13.4545 1.20763L7.95449 13.2076C7.91467 13.2948 7.85064 13.3687 7.77003 13.4205C7.68942 13.4723 7.59562 13.4998 7.4998 13.4998Z" fill="#00A886"/>
</svg>
